<mxfile host="app.diagrams.net" modified="2021-12-09T11:19:08.135Z" agent="5.0 (Windows NT 10.0; WOW64) AppleWebKit/537.36 (KHTML, like Gecko) Chrome/96.0.4664.93 Safari/537.36" etag="oCksFF2DDiP5vYi3UPBu" version="15.9.1" type="github">
  <diagram name="Page-1" id="0783ab3e-0a74-02c8-0abd-f7b4e66b4bec">
    <mxGraphModel dx="1778" dy="953" grid="1" gridSize="10" guides="1" tooltips="1" connect="1" arrows="1" fold="1" page="1" pageScale="1" pageWidth="850" pageHeight="1100" background="none" math="0" shadow="0">
      <root>
        <mxCell id="0" />
        <mxCell id="1" parent="0" />
        <mxCell id="qsWV0e6IKwxzNI33G1gk-1" value="BaiHat" style="swimlane;fontStyle=3;align=center;verticalAlign=top;childLayout=stackLayout;horizontal=1;startSize=26;horizontalStack=0;resizeParent=1;resizeParentMax=0;resizeLast=0;collapsible=1;marginBottom=0;" vertex="1" parent="1">
          <mxGeometry x="340" y="80" width="160" height="230" as="geometry" />
        </mxCell>
        <mxCell id="qsWV0e6IKwxzNI33G1gk-2" value="+ Ten : string&#xa;+ Loi : string&#xa;+ CaSi : string&#xa;+ NamPH : string&#xa;+ TheLoai : string" style="text;strokeColor=none;fillColor=none;align=left;verticalAlign=top;spacingLeft=4;spacingRight=4;overflow=hidden;rotatable=0;points=[[0,0.5],[1,0.5]];portConstraint=eastwest;" vertex="1" parent="qsWV0e6IKwxzNI33G1gk-1">
          <mxGeometry y="26" width="160" height="78" as="geometry" />
        </mxCell>
        <mxCell id="qsWV0e6IKwxzNI33G1gk-3" value="" style="line;strokeWidth=1;fillColor=none;align=left;verticalAlign=middle;spacingTop=-1;spacingLeft=3;spacingRight=3;rotatable=0;labelPosition=right;points=[];portConstraint=eastwest;" vertex="1" parent="qsWV0e6IKwxzNI33G1gk-1">
          <mxGeometry y="104" width="160" height="8" as="geometry" />
        </mxCell>
        <mxCell id="qsWV0e6IKwxzNI33G1gk-4" value="+ BaiHat();&#xa;+ BaiHat(const BaiHat&amp; bh);&#xa;+ ~BaiHat();&#xa;+ NhapBaiHat(): virtual void &#xa;+ XuatBaiHat(): virtual void&#xa;+ XepHang() = 0: virtual int " style="text;strokeColor=none;fillColor=none;align=left;verticalAlign=top;spacingLeft=4;spacingRight=4;overflow=hidden;rotatable=0;points=[[0,0.5],[1,0.5]];portConstraint=eastwest;" vertex="1" parent="qsWV0e6IKwxzNI33G1gk-1">
          <mxGeometry y="112" width="160" height="118" as="geometry" />
        </mxCell>
        <mxCell id="qsWV0e6IKwxzNI33G1gk-5" value="PhoThong" style="swimlane;fontStyle=1;align=center;verticalAlign=top;childLayout=stackLayout;horizontal=1;startSize=26;horizontalStack=0;resizeParent=1;resizeParentMax=0;resizeLast=0;collapsible=1;marginBottom=0;" vertex="1" parent="1">
          <mxGeometry x="50" y="30" width="160" height="140" as="geometry" />
        </mxCell>
        <mxCell id="qsWV0e6IKwxzNI33G1gk-6" value="+ LuocXem: long long&#xa;" style="text;strokeColor=none;fillColor=none;align=left;verticalAlign=top;spacingLeft=4;spacingRight=4;overflow=hidden;rotatable=0;points=[[0,0.5],[1,0.5]];portConstraint=eastwest;" vertex="1" parent="qsWV0e6IKwxzNI33G1gk-5">
          <mxGeometry y="26" width="160" height="24" as="geometry" />
        </mxCell>
        <mxCell id="qsWV0e6IKwxzNI33G1gk-7" value="" style="line;strokeWidth=1;fillColor=none;align=left;verticalAlign=middle;spacingTop=-1;spacingLeft=3;spacingRight=3;rotatable=0;labelPosition=right;points=[];portConstraint=eastwest;" vertex="1" parent="qsWV0e6IKwxzNI33G1gk-5">
          <mxGeometry y="50" width="160" height="8" as="geometry" />
        </mxCell>
        <mxCell id="qsWV0e6IKwxzNI33G1gk-8" value="+ PhoThong();&#xa;+ ~PhoThong();&#xa;+ NhapBaiHat(): void &#xa;+ XuatBaiHat():  void&#xa;+ XepHang() = 0: int " style="text;strokeColor=none;fillColor=none;align=left;verticalAlign=top;spacingLeft=4;spacingRight=4;overflow=hidden;rotatable=0;points=[[0,0.5],[1,0.5]];portConstraint=eastwest;" vertex="1" parent="qsWV0e6IKwxzNI33G1gk-5">
          <mxGeometry y="58" width="160" height="82" as="geometry" />
        </mxCell>
        <mxCell id="qsWV0e6IKwxzNI33G1gk-9" value="BanQuyen" style="swimlane;fontStyle=1;align=center;verticalAlign=top;childLayout=stackLayout;horizontal=1;startSize=26;horizontalStack=0;resizeParent=1;resizeParentMax=0;resizeLast=0;collapsible=1;marginBottom=0;" vertex="1" parent="1">
          <mxGeometry x="650" y="30" width="160" height="150" as="geometry" />
        </mxCell>
        <mxCell id="qsWV0e6IKwxzNI33G1gk-10" value="+ LuocXem: long long&#xa;+ Gia: float" style="text;strokeColor=none;fillColor=none;align=left;verticalAlign=top;spacingLeft=4;spacingRight=4;overflow=hidden;rotatable=0;points=[[0,0.5],[1,0.5]];portConstraint=eastwest;" vertex="1" parent="qsWV0e6IKwxzNI33G1gk-9">
          <mxGeometry y="26" width="160" height="34" as="geometry" />
        </mxCell>
        <mxCell id="qsWV0e6IKwxzNI33G1gk-11" value="" style="line;strokeWidth=1;fillColor=none;align=left;verticalAlign=middle;spacingTop=-1;spacingLeft=3;spacingRight=3;rotatable=0;labelPosition=right;points=[];portConstraint=eastwest;" vertex="1" parent="qsWV0e6IKwxzNI33G1gk-9">
          <mxGeometry y="60" width="160" height="8" as="geometry" />
        </mxCell>
        <mxCell id="qsWV0e6IKwxzNI33G1gk-12" value="+ BanQuyen();&#xa;+ ~BanQuyen();&#xa;+ NhapBaiHat(): void &#xa;+ XuatBaiHat():  void&#xa;+ XepHang() = 0: int " style="text;strokeColor=none;fillColor=none;align=left;verticalAlign=top;spacingLeft=4;spacingRight=4;overflow=hidden;rotatable=0;points=[[0,0.5],[1,0.5]];portConstraint=eastwest;" vertex="1" parent="qsWV0e6IKwxzNI33G1gk-9">
          <mxGeometry y="68" width="160" height="82" as="geometry" />
        </mxCell>
        <mxCell id="qsWV0e6IKwxzNI33G1gk-13" value="HeThongBaiHat" style="swimlane;fontStyle=1;align=center;verticalAlign=top;childLayout=stackLayout;horizontal=1;startSize=26;horizontalStack=0;resizeParent=1;resizeParentMax=0;resizeLast=0;collapsible=1;marginBottom=0;" vertex="1" parent="1">
          <mxGeometry x="340" y="380" width="160" height="140" as="geometry" />
        </mxCell>
        <mxCell id="qsWV0e6IKwxzNI33G1gk-14" value="vector&lt;BaiHat*&gt;List" style="text;strokeColor=none;fillColor=none;align=left;verticalAlign=top;spacingLeft=4;spacingRight=4;overflow=hidden;rotatable=0;points=[[0,0.5],[1,0.5]];portConstraint=eastwest;" vertex="1" parent="qsWV0e6IKwxzNI33G1gk-13">
          <mxGeometry y="26" width="160" height="24" as="geometry" />
        </mxCell>
        <mxCell id="qsWV0e6IKwxzNI33G1gk-15" value="" style="line;strokeWidth=1;fillColor=none;align=left;verticalAlign=middle;spacingTop=-1;spacingLeft=3;spacingRight=3;rotatable=0;labelPosition=right;points=[];portConstraint=eastwest;" vertex="1" parent="qsWV0e6IKwxzNI33G1gk-13">
          <mxGeometry y="50" width="160" height="8" as="geometry" />
        </mxCell>
        <mxCell id="qsWV0e6IKwxzNI33G1gk-16" value="+ HeThongBaiHat();&#xa;+ ~HeThongBaiHat();&#xa;+ NhapDanhSach(): void &#xa;+ XuatDanhSach():  void&#xa;+ XuatXepHang(): void " style="text;strokeColor=none;fillColor=none;align=left;verticalAlign=top;spacingLeft=4;spacingRight=4;overflow=hidden;rotatable=0;points=[[0,0.5],[1,0.5]];portConstraint=eastwest;" vertex="1" parent="qsWV0e6IKwxzNI33G1gk-13">
          <mxGeometry y="58" width="160" height="82" as="geometry" />
        </mxCell>
        <mxCell id="qsWV0e6IKwxzNI33G1gk-17" value="TaiKhoan" style="swimlane;fontStyle=3;align=center;verticalAlign=top;childLayout=stackLayout;horizontal=1;startSize=26;horizontalStack=0;resizeParent=1;resizeParentMax=0;resizeLast=0;collapsible=1;marginBottom=0;" vertex="1" parent="1">
          <mxGeometry x="345" y="860" width="160" height="180" as="geometry" />
        </mxCell>
        <mxCell id="qsWV0e6IKwxzNI33G1gk-18" value="+ TK : string&#xa;+ MK : string&#xa;+ TienCuaBan : float&#xa;" style="text;strokeColor=none;fillColor=none;align=left;verticalAlign=top;spacingLeft=4;spacingRight=4;overflow=hidden;rotatable=0;points=[[0,0.5],[1,0.5]];portConstraint=eastwest;" vertex="1" parent="qsWV0e6IKwxzNI33G1gk-17">
          <mxGeometry y="26" width="160" height="54" as="geometry" />
        </mxCell>
        <mxCell id="qsWV0e6IKwxzNI33G1gk-19" value="" style="line;strokeWidth=1;fillColor=none;align=left;verticalAlign=middle;spacingTop=-1;spacingLeft=3;spacingRight=3;rotatable=0;labelPosition=right;points=[];portConstraint=eastwest;" vertex="1" parent="qsWV0e6IKwxzNI33G1gk-17">
          <mxGeometry y="80" width="160" height="8" as="geometry" />
        </mxCell>
        <mxCell id="qsWV0e6IKwxzNI33G1gk-20" value="+ TaiKhoan();&#xa;+ ~TaiKhoan();&#xa;+ GetTienCuaBan(): float&#xa;+ CheckKhoanTrong(): bool&#xa;+ NhapTK(): virtual void &#xa;+ XuatTK(): virtual void" style="text;strokeColor=none;fillColor=none;align=left;verticalAlign=top;spacingLeft=4;spacingRight=4;overflow=hidden;rotatable=0;points=[[0,0.5],[1,0.5]];portConstraint=eastwest;" vertex="1" parent="qsWV0e6IKwxzNI33G1gk-17">
          <mxGeometry y="88" width="160" height="92" as="geometry" />
        </mxCell>
        <mxCell id="qsWV0e6IKwxzNI33G1gk-21" value="TaiKhoanVip" style="swimlane;fontStyle=1;align=center;verticalAlign=top;childLayout=stackLayout;horizontal=1;startSize=26;horizontalStack=0;resizeParent=1;resizeParentMax=0;resizeLast=0;collapsible=1;marginBottom=0;" vertex="1" parent="1">
          <mxGeometry x="50" y="920" width="160" height="120" as="geometry" />
        </mxCell>
        <mxCell id="qsWV0e6IKwxzNI33G1gk-22" value="+  MucPhi: float&#xa;" style="text;strokeColor=none;fillColor=none;align=left;verticalAlign=top;spacingLeft=4;spacingRight=4;overflow=hidden;rotatable=0;points=[[0,0.5],[1,0.5]];portConstraint=eastwest;" vertex="1" parent="qsWV0e6IKwxzNI33G1gk-21">
          <mxGeometry y="26" width="160" height="24" as="geometry" />
        </mxCell>
        <mxCell id="qsWV0e6IKwxzNI33G1gk-23" value="" style="line;strokeWidth=1;fillColor=none;align=left;verticalAlign=middle;spacingTop=-1;spacingLeft=3;spacingRight=3;rotatable=0;labelPosition=right;points=[];portConstraint=eastwest;" vertex="1" parent="qsWV0e6IKwxzNI33G1gk-21">
          <mxGeometry y="50" width="160" height="8" as="geometry" />
        </mxCell>
        <mxCell id="qsWV0e6IKwxzNI33G1gk-24" value="+ TaiKhoanVip();&#xa;+ ~TaiKhoanVip();&#xa;+ NhapTK(): void &#xa;+ XuatTK():  void" style="text;strokeColor=none;fillColor=none;align=left;verticalAlign=top;spacingLeft=4;spacingRight=4;overflow=hidden;rotatable=0;points=[[0,0.5],[1,0.5]];portConstraint=eastwest;" vertex="1" parent="qsWV0e6IKwxzNI33G1gk-21">
          <mxGeometry y="58" width="160" height="62" as="geometry" />
        </mxCell>
        <mxCell id="qsWV0e6IKwxzNI33G1gk-25" value="TaiKhoanThuong" style="swimlane;fontStyle=1;align=center;verticalAlign=top;childLayout=stackLayout;horizontal=1;startSize=26;horizontalStack=0;resizeParent=1;resizeParentMax=0;resizeLast=0;collapsible=1;marginBottom=0;" vertex="1" parent="1">
          <mxGeometry x="650" y="920" width="160" height="96" as="geometry" />
        </mxCell>
        <mxCell id="qsWV0e6IKwxzNI33G1gk-27" value="" style="line;strokeWidth=1;fillColor=none;align=left;verticalAlign=middle;spacingTop=-1;spacingLeft=3;spacingRight=3;rotatable=0;labelPosition=right;points=[];portConstraint=eastwest;" vertex="1" parent="qsWV0e6IKwxzNI33G1gk-25">
          <mxGeometry y="26" width="160" height="8" as="geometry" />
        </mxCell>
        <mxCell id="qsWV0e6IKwxzNI33G1gk-28" value="+ TaiKhoanThuong();&#xa;+ ~TaiKhoanThuong();&#xa;+ NhapTK(): void &#xa;+ XuatTK():  void" style="text;strokeColor=none;fillColor=none;align=left;verticalAlign=top;spacingLeft=4;spacingRight=4;overflow=hidden;rotatable=0;points=[[0,0.5],[1,0.5]];portConstraint=eastwest;" vertex="1" parent="qsWV0e6IKwxzNI33G1gk-25">
          <mxGeometry y="34" width="160" height="62" as="geometry" />
        </mxCell>
        <mxCell id="qsWV0e6IKwxzNI33G1gk-29" value="HeThongUser" style="swimlane;fontStyle=1;align=center;verticalAlign=top;childLayout=stackLayout;horizontal=1;startSize=26;horizontalStack=0;resizeParent=1;resizeParentMax=0;resizeLast=0;collapsible=1;marginBottom=0;" vertex="1" parent="1">
          <mxGeometry x="340" y="590" width="160" height="194" as="geometry" />
        </mxCell>
        <mxCell id="qsWV0e6IKwxzNI33G1gk-30" value="+ vector&lt;BaiHat*&gt; PlayList;&#xa;+ tk: TaiKhoan* " style="text;strokeColor=none;fillColor=none;align=left;verticalAlign=top;spacingLeft=4;spacingRight=4;overflow=hidden;rotatable=0;points=[[0,0.5],[1,0.5]];portConstraint=eastwest;" vertex="1" parent="qsWV0e6IKwxzNI33G1gk-29">
          <mxGeometry y="26" width="160" height="40" as="geometry" />
        </mxCell>
        <mxCell id="qsWV0e6IKwxzNI33G1gk-31" value="" style="line;strokeWidth=1;fillColor=none;align=left;verticalAlign=middle;spacingTop=-1;spacingLeft=3;spacingRight=3;rotatable=0;labelPosition=right;points=[];portConstraint=eastwest;" vertex="1" parent="qsWV0e6IKwxzNI33G1gk-29">
          <mxGeometry y="66" width="160" height="8" as="geometry" />
        </mxCell>
        <mxCell id="qsWV0e6IKwxzNI33G1gk-32" value="+ HeThongUser();&#xa;+ ~HeThongUser();&#xa;+ Open(): void &#xa;+ TKThuong():  void&#xa;+ TKVip(): void &#xa;+ Insert():  void&#xa;+ Erase(): void&#xa;+ XuatPlayList(): void  " style="text;strokeColor=none;fillColor=none;align=left;verticalAlign=top;spacingLeft=4;spacingRight=4;overflow=hidden;rotatable=0;points=[[0,0.5],[1,0.5]];portConstraint=eastwest;" vertex="1" parent="qsWV0e6IKwxzNI33G1gk-29">
          <mxGeometry y="74" width="160" height="120" as="geometry" />
        </mxCell>
        <mxCell id="qsWV0e6IKwxzNI33G1gk-33" value="Extends" style="endArrow=block;endSize=16;endFill=0;html=1;rounded=0;exitX=1;exitY=0;exitDx=0;exitDy=0;entryX=0.5;entryY=0;entryDx=0;entryDy=0;" edge="1" parent="1" source="qsWV0e6IKwxzNI33G1gk-5" target="qsWV0e6IKwxzNI33G1gk-1">
          <mxGeometry width="160" relative="1" as="geometry">
            <mxPoint x="460" y="390" as="sourcePoint" />
            <mxPoint x="430" y="30" as="targetPoint" />
          </mxGeometry>
        </mxCell>
        <mxCell id="qsWV0e6IKwxzNI33G1gk-34" value="Extends" style="endArrow=block;endSize=16;endFill=0;html=1;rounded=0;exitX=0;exitY=0;exitDx=0;exitDy=0;entryX=0.5;entryY=0;entryDx=0;entryDy=0;" edge="1" parent="1" source="qsWV0e6IKwxzNI33G1gk-9" target="qsWV0e6IKwxzNI33G1gk-1">
          <mxGeometry width="160" relative="1" as="geometry">
            <mxPoint x="220" y="40.000000000000114" as="sourcePoint" />
            <mxPoint x="430" y="90" as="targetPoint" />
          </mxGeometry>
        </mxCell>
        <mxCell id="qsWV0e6IKwxzNI33G1gk-35" value="Extends" style="endArrow=block;endSize=16;endFill=0;html=1;rounded=0;exitX=1;exitY=0;exitDx=0;exitDy=0;" edge="1" parent="1" source="qsWV0e6IKwxzNI33G1gk-21" target="qsWV0e6IKwxzNI33G1gk-18">
          <mxGeometry width="160" relative="1" as="geometry">
            <mxPoint x="230" y="50.000000000000114" as="sourcePoint" />
            <mxPoint x="440" y="100" as="targetPoint" />
          </mxGeometry>
        </mxCell>
        <mxCell id="qsWV0e6IKwxzNI33G1gk-36" value="Extends" style="endArrow=block;endSize=16;endFill=0;html=1;rounded=0;exitX=0;exitY=0;exitDx=0;exitDy=0;entryX=1;entryY=0.5;entryDx=0;entryDy=0;" edge="1" parent="1" source="qsWV0e6IKwxzNI33G1gk-25" target="qsWV0e6IKwxzNI33G1gk-18">
          <mxGeometry width="160" relative="1" as="geometry">
            <mxPoint x="240" y="60.000000000000114" as="sourcePoint" />
            <mxPoint x="450" y="110" as="targetPoint" />
          </mxGeometry>
        </mxCell>
        <mxCell id="qsWV0e6IKwxzNI33G1gk-37" value="" style="endArrow=diamondThin;endFill=0;endSize=24;html=1;rounded=0;exitX=0.505;exitY=1.028;exitDx=0;exitDy=0;exitPerimeter=0;" edge="1" parent="1" source="qsWV0e6IKwxzNI33G1gk-4" target="qsWV0e6IKwxzNI33G1gk-13">
          <mxGeometry width="160" relative="1" as="geometry">
            <mxPoint x="460" y="420" as="sourcePoint" />
            <mxPoint x="620" y="420" as="targetPoint" />
          </mxGeometry>
        </mxCell>
        <mxCell id="qsWV0e6IKwxzNI33G1gk-38" value="" style="endArrow=diamondThin;endFill=0;endSize=24;html=1;rounded=0;exitX=0.5;exitY=0;exitDx=0;exitDy=0;" edge="1" parent="1" source="qsWV0e6IKwxzNI33G1gk-17">
          <mxGeometry width="160" relative="1" as="geometry">
            <mxPoint x="460" y="570" as="sourcePoint" />
            <mxPoint x="420" y="780" as="targetPoint" />
          </mxGeometry>
        </mxCell>
        <mxCell id="qsWV0e6IKwxzNI33G1gk-39" value="" style="endArrow=diamondThin;endFill=0;endSize=24;html=1;rounded=0;exitX=0.497;exitY=1.07;exitDx=0;exitDy=0;exitPerimeter=0;entryX=0.5;entryY=0;entryDx=0;entryDy=0;" edge="1" parent="1" source="qsWV0e6IKwxzNI33G1gk-16" target="qsWV0e6IKwxzNI33G1gk-29">
          <mxGeometry width="160" relative="1" as="geometry">
            <mxPoint x="460" y="570" as="sourcePoint" />
            <mxPoint x="620" y="570" as="targetPoint" />
          </mxGeometry>
        </mxCell>
      </root>
    </mxGraphModel>
  </diagram>
</mxfile>
